PathFileType        4      (X/Y/Z)      C:\Users\pc\Desktop\IMUTRC\Sujet_06\Sujet_06_velo_80.trc         
DataRate	CameraRate	NumFrames	NumMarkers	Units	OrigDataRate	OrigDataStartFrame	OrigNumFrames
60.0	60.0	4	64	mm	60.0	1	948
Frame#	Time	pHipOrigin			pRightASI			pLeftASI			pRightCSI			pLeftCSI			pRightIschialTub			pLeftIschialTub			pSacrum			pL5SpinalProcess			pL3SpinalProcess			pT12SpinalProcess			pIJ			pT4SpinalProcess			pT8SpinalProcess			pPX			pC7SpinalProcess			pTopOfHead			pRightAuricularis			pLeftAuricularis			pBackOfHead			pRightAcromion			pLeftAcromion			pRightArmLatEpicondyle			pRightArmMedEpicondyle			pLeftArmLatEpicondyle			pLeftArmMedEpicondyle			pRightUlnarStyloid			pRightRadialStyloid			pRightOlecranon			pLeftUlnarStyloid			pLeftRadialStyloid			pLeftOlecranon			pRightTopOfHand			pRightPinky			pRightBallHand			pLeftTopOfHand			pLeftPinky			pLeftBallHand			pRightGreaterTrochanter			pRightKneeLatEpicondyle			pRightKneeMedEpicondyle			pRightPatella			pLeftGreaterTrochanter			pLeftKneeLatEpicondyle			pLeftKneeMedEpicondyle			pLeftPatella			pRightTibialTub			pRightLatMalleolus			pRightMedMalleolus			pLeftTibialTub			pLeftLatMalleolus			pLeftMedMalleolus			pRightHeelFoot			pRightFirstMetatarsal			pRightFifthMetatarsal			pRightPivotFoot			pRightHeelCenter			pRightToe			pLeftHeelFoot			pLeftFirstMetatarsal			pLeftFifthMetatarsal			pLeftPivotFoot			pLeftHeelCenter			pLeftToe			
		X1	Y1	Z1	X2	Y2	Z2	X3	Y3	Z3	X4	Y4	Z4	X5	Y5	Z5	X6	Y6	Z6	X7	Y7	Z7	X8	Y8	Z8	X9	Y9	Z9	X10	Y10	Z10	X11	Y11	Z11	X12	Y12	Z12	X13	Y13	Z13	X14	Y14	Z14	X15	Y15	Z15	X16	Y16	Z16	X17	Y17	Z17	X18	Y18	Z18	X19	Y19	Z19	X20	Y20	Z20	X21	Y21	Z21	X22	Y22	Z22	X23	Y23	Z23	X24	Y24	Z24	X25	Y25	Z25	X26	Y26	Z26	X27	Y27	Z27	X28	Y28	Z28	X29	Y29	Z29	X30	Y30	Z30	X31	Y31	Z31	X32	Y32	Z32	X33	Y33	Z33	X34	Y34	Z34	X35	Y35	Z35	X36	Y36	Z36	X37	Y37	Z37	X38	Y38	Z38	X39	Y39	Z39	X40	Y40	Z40	X41	Y41	Z41	X42	Y42	Z42	X43	Y43	Z43	X44	Y44	Z44	X45	Y45	Z45	X46	Y46	Z46	X47	Y47	Z47	X48	Y48	Z48	X49	Y49	Z49	X50	Y50	Z50	X51	Y51	Z51	X52	Y52	Z52	X53	Y53	Z53	X54	Y54	Z54	X55	Y55	Z55	X56	Y56	Z56	X57	Y57	Z57	X58	Y58	Z58	X59	Y59	Z59	X60	Y60	Z60	X61	Y61	Z61	X62	Y62	Z62	X63	Y63	Z63	X64	Y64	Z64	
1	0.0	0.0	1250.06673	7.654451098075493E-14	51.385610000000014	1327.34851	124.73551000000009	79.72225999999999	1333.72087	-103.99144999999993	20.472890000000014	1389.58068	104.39820000000009	44.33533999999999	1395.00396	-88.39950999999992	-58.571459999999995	1203.96882	40.40346000000008	-46.64023000000001	1206.68046	-55.99539999999992	-55.9954	1273.92917	-6.236779999999915	-17.89683	1362.32868	0.1355800000000856	35.65809	1468.76061	8.541670000000087	86.77253	1565.15947	15.998680000000085	337.46378	1634.17074	55.724230000000055	211.50804	1718.77396	33.62435000000008	147.78446	1654.37247	24.404770000000084	254.08081	1542.51726	43.793010000000066	258.14827	1762.43139	40.132290000000076	539.48107	1767.99025	35.929250000000046	440.91291	1766.0921	116.05826000000006	430.60867	1753.07622	-27.65873999999995	430.74425	1815.98631	39.454380000000064	231.43860000000004	1743.58548	216.11783000000008	293.94194	1729.48494	-133.14159999999993	375.69793	1482.18324	229.94720000000004	367.02068	1474.1839	167.98619000000002	456.77601	1493.43655	-145.20839999999998	427.49028	1468.35387	-95.31419999999997	528.90567	1284.77574	263.02922	563.4791	1310.94308	234.28582000000003	351.97107	1468.0827	215.16875000000002	656.21724	1338.05949	-130.42996	660.42029	1351.34654	-80.26459	438.20126	1477.30228	-147.51329999999996	713.56846	1294.26648	266.8255199999999	638.32041	1265.65867	280.51931	574.868	1277.72547	254.75872000000004	810.64522	1325.85711	-37.013910000000024	756.68356	1317.04427	-97.61909000000001	687.94345	1325.31478	-104.94053	-14.778449999999982	1213.73073	145.61515000000009	161.34267000000003	877.48719	147.78446000000002	184.5272	882.63931	77.95969000000002	207.16941000000003	901.07847	123.10852000000003	45.14882999999998	1256.84583	-144.25932999999992	409.45787	1154.75253	-112.66869999999999	405.66157	1142.1434	-39.99670999999998	415.01673	1187.97014	-66.57079999999999	214.76201000000003	841.01561	120.53246000000003	65.07940000000002	499.34878	105.34727000000001	79.58668	500.7046	47.99605000000002	433.32031	1104.45158	-73.75664999999998	211.10128999999998	812.54337	-142.63233999999997	205.81359	808.74707	-83.78971999999999	10.439820000000006	435.62521	58.16471000000003	160.66476	378.81632	75.51922000000002	135.03975000000003	382.88378	147.37772	167.17270000000002	373.12187	117.68524000000001	43.92859000000001	424.23631	70.77384000000004	233.74350000000004	346.4122	143.03909	134.90416	756.54798	-112.80428999999997	272.51997	680.62201	-75.51921999999999	272.38439	680.21527	-151.85192	291.36588	669.77545	-112.6687	168.52852	740.00696	-112.80428999999997	357.80109	632.76154	-112.6687	
2	0.017	0.0	1250.06673	7.654451098075493E-14	50.16537000000002	1327.07735	125.27784000000008	79.72225999999999	1334.66994	-103.17795999999993	18.981490000000015	1389.17394	105.07611000000009	43.928589999999986	1395.68188	-87.58601999999992	-58.435869999999994	1203.42649	39.99671000000008	-45.962320000000005	1206.54488	-56.402139999999925	-56.13098	1273.65801	-6.372359999999914	-18.57474	1362.1931	0.5423300000000856	34.70901	1468.8962	9.490750000000087	85.55229	1565.29505	17.490090000000084	336.10796	1634.17074	58.164710000000056	210.2878	1718.90954	35.92925000000008	146.56422	1654.50806	26.438500000000086	252.72499	1542.51726	45.826740000000065	257.06361	1762.43139	42.57277000000008	538.39642	1767.85467	38.776470000000046	439.69267	1766.0921	118.90548000000005	429.52401	1752.94064	-24.947099999999946	429.65959	1815.98631	42.16603000000006	229.94720000000004	1743.04315	218.42272000000008	292.85728	1729.48494	-130.83669999999992	374.07094000000006	1481.50533	232.11651000000003	365.25811	1473.50599	170.15550000000002	455.28461	1493.30097	-143.98815999999997	426.67679	1468.48945	-93.68720999999996	527.68543	1284.36899	264.92737	562.25886	1310.67191	236.31956000000002	350.34408	1467.26921	217.33807000000002	654.997	1337.92391	-128.39622	659.06446	1351.07537	-78.23086	437.11661	1477.30228	-146.02188999999998	712.34822	1294.53765	268.99483999999995	637.23575	1265.79425	282.55304	573.64776	1277.58989	256.79245	809.42498	1325.31478	-35.11576000000002	755.32774	1316.77311	-95.85653000000002	686.72321	1325.04361	-103.04238	-14.371699999999983	1212.91724	145.47957000000008	166.76595000000003	879.24975	145.20840000000004	189.54374	885.07978	75.24805000000003	212.05036000000004	903.65453	120.39688000000002	46.23348999999999	1257.25258	-143.8525799999999	408.64437	1149.19366	-109.41472999999999	403.76342	1136.0422	-36.87831999999998	414.20324	1182.00453	-63.04565999999998	217.20248000000004	841.28677	118.09199000000002	47.453730000000014	508.97511	107.38100000000003	61.41868000000001	508.97511	50.02979000000002	434.40497	1099.84179	-70.09592999999998	226.01531999999997	797.2226	-136.80230999999998	220.8632	793.69746	-77.95968999999998	-9.626329999999992	447.82759	60.87635000000003	138.29372	385.45984	78.36644000000001	112.93987000000001	391.0187	150.22494000000003	144.66607000000002	379.76539	120.53246000000001	23.32012000000001	435.21846	73.48548000000002	210.15222000000003	350.75083	146.02189	153.61449	737.56649	-107.38099999999997	295.29776	669.63987	-70.50268	295.29776	669.77545	-146.83539	314.82158	660.2847	-107.65217	188.18792	723.0592	-107.51658999999998	383.15494	627.47384	-107.78775	
3	0.033	0.0	1250.06673	7.654451098075493E-14	49.08071000000002	1326.80618	125.95575000000008	79.58667999999999	1335.61902	-102.36446999999993	17.625670000000014	1388.90277	105.88960000000009	43.38625999999999	1396.35979	-86.63694999999991	-58.30028999999999	1202.88417	39.45438000000008	-45.419990000000006	1206.54488	-56.80888999999992	-56.13098	1273.25126	-6.643519999999914	-19.25265	1362.1931	0.9490700000000857	33.62435	1469.03178	10.575400000000087	84.33205	1565.56621	18.981490000000086	334.88772	1634.03516	60.46961000000006	209.20314	1719.04512	38.23415000000008	145.34398	1654.77922	28.336650000000084	251.36917	1542.65284	47.724890000000066	255.84337	1762.56697	45.148830000000075	537.17618	1767.71909	41.75928000000004	438.47243	1765.95652	121.61712000000006	428.43936	1752.94064	-22.099879999999946	428.57494	1815.85072	45.01325000000006	228.32021000000003	1742.50082	220.8632000000001	291.77262	1729.48494	-128.53180999999992	372.44396000000006	1480.963	234.28582000000003	363.63112	1472.96366	172.32482000000002	453.92879	1493.0298	-142.76791999999998	425.8633	1468.62503	-91.92464999999997	526.4652	1283.96225	266.9611	561.03862	1310.53633	238.21770000000004	348.7171	1466.5913	219.50738000000004	653.64118	1337.65275	-126.36249	657.70864	1350.93979	-76.19713	436.03195	1477.1667	-144.53048999999996	711.12798	1294.80881	271.02856999999995	636.01551	1265.79425	284.58677	572.5631	1277.45431	258.6906	808.06916	1324.77245	-33.35319000000002	753.97192	1316.50194	-93.95838	685.36739	1324.90803	-101.00865	-13.964949999999982	1212.10375	145.2084000000001	172.05365000000003	881.1479	142.49676000000002	194.42469	887.65584	72.53641000000003	216.79574000000002	906.23059	117.68524000000002	47.318139999999985	1257.52374	-143.44582999999992	407.55972	1143.6348	-106.16075999999998	401.86527	1130.07659	-33.895519999999976	413.25416	1175.90333	-59.52052999999998	219.50738	841.8291	115.65151000000003	30.234800000000014	520.09284	109.68590000000003	43.79301000000001	518.60144	52.06352000000002	435.35404	1095.232	-66.57079999999999	241.47166999999996	782.71532	-130.83669999999998	236.45514	779.32576	-72.12965999999999	-29.692469999999993	460.16556	63.58799000000003	115.78709000000002	392.23894	81.34924000000001	90.83999000000001	399.28921	153.07216000000003	122.02387000000002	386.68008	123.51527000000002	2.8472200000000094	446.47177	76.19713000000003	186.42535000000004	355.36062	149.0047	172.59598	718.99174	-102.09329999999997	318.07555	659.06446	-65.48614	318.07555	659.87796	-141.81885	338.00611	651.06512	-102.63563	207.9829	706.51819	-102.22887999999999	408.37321	622.32172	-102.90679000000002	
4	0.05	0.0	1250.06673	7.654451098075493E-14	48.13164000000001	1326.80618	126.22691000000009	79.58667999999999	1336.29693	-101.95771999999992	16.405430000000013	1388.76719	106.16076000000008	42.979519999999994	1396.76653	-86.23019999999991	-58.16470999999999	1202.47742	39.04764000000008	-44.87767000000001	1206.4093	-57.08004999999992	-56.26656	1272.9801	-6.779099999999914	-19.79498	1362.1931	1.0846600000000859	32.67528	1469.16736	11.117730000000087	83.38298	1565.7018	19.930560000000085	333.66749	1634.03516	62.36775000000006	208.11848	1719.1807	39.86113000000008	144.25933	1654.9148	29.692470000000085	250.14893	1542.65284	49.08071000000007	254.8943	1762.56697	47.046980000000076	536.2271	1767.71909	44.06417000000004	437.38777	1765.95652	123.92202000000006	427.49028	1752.94064	-19.794979999999946	427.49028	1815.85072	47.318140000000064	226.96439000000004	1742.09408	222.62577000000007	290.82355	1729.62052	-126.90481999999994	371.22372000000007	1480.69184	235.77723000000003	362.41089	1472.69249	173.95180000000002	452.84413	1493.0298	-141.81884999999997	425.18539	1468.76061	-90.56882999999998	525.6517	1284.09783	268.31693	560.08955	1310.67191	239.70911000000004	347.49686	1466.32014	220.99878000000007	652.82769	1337.78833	-125.00667	656.75957	1350.93979	-74.84131	435.08288	1477.30228	-143.44582999999997	710.31449	1295.35114	272.65554999999995	635.20202	1266.20099	286.07818	571.74961	1277.58989	260.182	807.25567	1324.77245	-31.997370000000018	753.15842	1316.63753	-92.60256	684.41831	1325.04361	-99.65282	-13.287039999999982	1211.83258	145.2084000000001	179.10392000000002	884.53745	141.41210000000004	200.93263	891.45214	71.18059000000002	223.30368000000004	910.56921	116.32942000000003	48.26721999999999	1256.84583	-143.0390899999999	405.52598	1134.95755	-103.17795999999997	399.01805	1121.53492	-30.912709999999983	411.62718	1167.22608	-56.53772999999998	223.43926	843.86283	114.43127000000003	15.049610000000014	534.19337	111.04172000000003	28.065490000000008	531.61731	53.55492000000004	435.08288	1088.04615	-63.181249999999984	255.70778999999996	766.85221	-126.49807999999999	250.69126	763.46266	-67.65545999999999	-47.45372999999999	475.62192	65.62172000000002	95.31420000000001	402.4076	83.38298000000002	70.90942000000001	410.94927	155.24148000000002	101.41539000000002	396.84873	125.54900000000002	-15.456359999999991	460.84347	78.23086000000004	164.73222000000004	363.22438	151.17401	190.35723	699.06118	-98.43258999999999	338.8196	647.26882	-61.82543	338.95519	648.62464	-138.29372	359.2925	640.76088	-99.1105	226.28648	688.62136	-98.43258999999999	431.28658	615.6782	-99.51724000000002	
